<svg width="1200" height="1200" viewBox="0 0 1200 1200" fill="none" xmlns="http://www.w3.org/2000/svg">
<path d="M600.231 659.204C488.517 659.204 397.631 568.319 397.631 456.606C397.631 344.893 488.517 254.008 600.231 254.008C711.945 254.008 802.831 344.893 802.831 456.606C802.831 568.319 711.945 659.204 600.231 659.204ZM600.231 313.139C521.123 313.139 456.763 377.497 456.763 456.605C456.763 535.713 521.123 600.071 600.231 600.071C679.339 600.071 743.699 535.713 743.699 456.605C743.699 377.497 679.34 313.139 600.231 313.139Z" fill="white"/>
<path d="M921.062 945.992C904.733 945.992 891.496 932.754 891.496 916.426C891.496 817.478 810.996 736.981 712.049 736.981H487.951C389.003 736.981 308.504 817.479 308.504 916.426C308.504 932.754 295.267 945.992 278.938 945.992C262.609 945.992 249.372 932.754 249.372 916.426C249.372 784.874 356.398 677.849 487.951 677.849H712.049C843.602 677.849 950.628 784.874 950.628 916.426C950.628 932.754 937.391 945.992 921.062 945.992Z" fill="white"/>
</svg>
